<?xml version="1.0" standalone="no"?>
<!DOCTYPE svg PUBLIC "-//W3C//DTD SVG 20010904//EN"
 "http://www.w3.org/TR/2001/REC-SVG-20010904/DTD/svg10.dtd">
<svg version="1.0" xmlns="http://www.w3.org/2000/svg"
 width="1280.000000pt" height="590.000000pt" viewBox="0 0 1280.000000 590.000000"
 preserveAspectRatio="xMidYMid meet">
<metadata>
Created by potrace 1.15, written by Peter Selinger 2001-2017
</metadata>
<g transform="translate(0.000000,590.000000) scale(0.100000,-0.100000)"
fill="#8c9775" stroke="none">
<path d="M5597 5831 c-48 -95 -82 -247 -111 -501 -90 -758 -41 -1047 248
-1482 144 -217 355 -467 570 -677 48 -46 85 -85 84 -86 -2 -1 -208 85 -458
192 -610 259 -782 327 -1065 422 -614 204 -1087 285 -1527 260 -208 -11 -300
-26 -1023 -163 -251 -47 -374 -60 -570 -59 -242 0 -402 36 -590 130 -182 92
-396 268 -552 455 l-65 78 35 42 c19 24 54 81 78 128 38 76 43 94 47 171 4 80
2 89 -28 149 -71 140 -278 287 -480 339 -71 19 -72 18 -86 -22 -7 -21 -23 -46
-35 -56 -32 -26 -28 -71 12 -146 l34 -64 -41 -43 c-83 -87 -92 -127 -51 -220
44 -97 126 -161 302 -233 159 -65 198 -95 315 -241 49 -61 96 -117 105 -124
27 -22 16 -30 -23 -16 -65 23 -180 38 -234 31 -79 -11 -111 -29 -143 -79 -16
-25 -33 -46 -37 -46 -15 0 -8 -24 14 -47 12 -13 16 -23 10 -23 -6 0 -34 -45
-62 -99 -38 -74 -60 -105 -84 -119 -29 -17 -34 -28 -45 -83 -7 -35 -19 -74
-27 -86 -14 -22 -13 -23 27 -29 29 -5 47 -15 62 -36 21 -28 24 -29 77 -23 30
4 73 13 94 20 35 12 40 12 55 -5 36 -40 180 -52 254 -21 113 49 214 200 263
395 9 36 21 66 26 66 6 0 22 -9 37 -20 108 -76 393 -180 574 -208 l112 -17
-90 -24 c-187 -49 -432 -155 -525 -229 -184 -145 -296 -303 -400 -567 -50
-126 -76 -245 -53 -245 15 0 60 36 139 111 78 75 88 80 388 200 109 44 221 91
250 106 114 57 244 170 299 259 36 58 56 134 67 244 14 155 -3 142 211 168
101 13 303 41 449 63 531 80 643 91 946 96 170 3 342 1 435 -6 152 -12 489
-57 499 -68 3 -3 -35 -1 -85 3 -125 11 -402 8 -510 -5 -466 -57 -874 -244
-1168 -534 -264 -260 -410 -550 -482 -960 -26 -148 -17 -398 19 -522 50 -167
110 -274 219 -386 204 -210 489 -324 842 -336 315 -10 599 58 845 204 134 79
299 245 357 358 71 139 88 209 87 365 -1 156 -17 240 -71 374 -44 112 -92 210
-100 203 -3 -3 -17 8 -31 25 -18 21 -23 33 -14 36 16 5 5 22 -14 22 -20 0 -17
-27 6 -50 12 -12 19 -24 16 -29 -3 -4 13 -49 35 -100 47 -110 89 -293 89 -390
0 -160 -49 -329 -138 -471 -153 -246 -491 -441 -833 -480 -284 -33 -549 17
-726 137 -181 122 -324 312 -403 538 -150 430 -48 876 292 1282 69 82 168 171
306 275 198 150 512 261 842 299 127 14 475 6 635 -15 211 -28 601 -120 860
-203 292 -94 1336 -491 1342 -510 2 -6 -40 -25 -94 -43 -385 -127 -779 -360
-895 -528 -38 -56 -164 -307 -217 -436 -96 -232 -139 -418 -111 -486 16 -38
22 -33 95 70 30 42 71 92 92 111 82 74 258 177 537 315 325 160 428 227 520
342 62 77 96 140 124 232 26 84 46 267 37 336 -3 30 -2 54 2 54 5 0 113 -39
239 -86 258 -96 794 -284 867 -304 26 -7 47 -18 47 -25 0 -23 -41 -130 -91
-239 -68 -145 -88 -206 -95 -287 -6 -61 -4 -74 21 -125 52 -106 142 -179 258
-210 80 -21 231 -28 332 -15 322 43 821 235 1255 484 58 33 109 62 113 65 33
18 -38 -65 -163 -193 -234 -239 -255 -282 -244 -521 8 -168 5 -181 -57 -307
-21 -43 -41 -97 -44 -120 -14 -99 49 -285 116 -341 60 -51 88 -60 184 -60 101
1 138 11 385 110 287 114 343 89 375 -174 24 -191 41 -249 94 -305 35 -38 59
-50 209 -101 70 -24 153 -53 184 -65 72 -27 142 -27 212 0 107 40 121 96 71
281 l-28 107 18 83 c33 156 31 197 -36 563 -30 164 -32 184 -39 555 -7 406
-10 429 -61 547 -43 99 -80 209 -90 270 -14 82 -34 106 -106 126 -106 31 -147
37 -278 44 -150 6 -242 -5 -318 -40 -62 -28 -160 -116 -187 -166 -14 -27 -19
-31 -20 -16 -1 43 -40 104 -119 187 -97 102 -102 125 -46 191 76 89 52 155
-68 188 -26 7 -41 18 -47 35 -17 44 -14 46 77 42 l87 -3 24 43 c13 23 31 42
40 43 9 0 -1 9 -23 19 -48 22 -33 26 18 5 41 -17 143 -20 181 -5 36 13 56 59
56 130 0 114 32 152 160 190 162 48 245 104 276 186 61 161 -88 1077 -217
1336 -49 97 -99 113 -203 65 -91 -42 -139 -38 -261 23 -195 96 -422 126 -526
69 -51 -28 -74 -67 -89 -151 -13 -69 -44 -117 -90 -141 -29 -14 -48 -16 -110
-10 -190 18 -250 4 -294 -70 -42 -73 -91 -99 -255 -137 -103 -24 -135 -42
-185 -103 -56 -68 -78 -135 -83 -252 -4 -85 -2 -108 16 -155 31 -80 98 -168
161 -212 81 -56 159 -77 351 -93 266 -22 337 -46 496 -164 106 -80 155 -136
200 -232 38 -82 72 -115 200 -192 29 -18 53 -35 53 -39 0 -8 -98 15 -173 41
-31 11 -172 84 -311 161 -139 78 -302 161 -362 186 -100 41 -114 45 -171 40
-80 -7 -116 -22 -243 -106 -146 -96 -184 -104 -317 -62 -148 45 -183 48 -248
19 -104 -48 -148 -156 -89 -220 14 -16 56 -50 94 -77 41 -30 73 -62 80 -81 12
-28 10 -36 -20 -95 -31 -61 -32 -65 -16 -89 9 -14 34 -36 56 -50 41 -26 60
-52 60 -81 0 -9 -16 -51 -35 -94 -19 -43 -35 -90 -35 -105 0 -14 -3 -25 -7
-23 -5 2 -39 18 -78 36 -38 19 -128 53 -200 77 -208 69 -972 369 -992 389 -2
2 26 63 61 137 111 231 155 400 155 594 1 276 -116 543 -390 895 -162 207
-380 501 -448 605 -119 181 -135 223 -191 500 -21 99 -37 135 -61 135 -4 0
-23 -31 -42 -69z m-906 -2150 c85 -16 179 -39 209 -50 66 -24 59 -26 -19 -6
-31 8 -121 28 -200 45 -79 16 -147 32 -149 35 -8 7 -6 7 159 -24z m429 -92
c10 -6 4 -7 -15 -3 -16 4 -37 11 -45 15 -10 6 -4 7 15 3 17 -4 37 -11 45 -15z
m-4690 -104 c0 -8 -4 -15 -10 -15 -5 0 -10 7 -10 15 0 8 5 15 10 15 6 0 10 -7
10 -15z m3832 -993 c3 7 5 -2 5 -20 l0 -32 -19 27 c-21 32 -24 57 -4 30 10
-13 15 -15 18 -5z m5368 -330 c0 -5 -9 -17 -20 -27 -22 -20 -26 -14 -10 16 11
19 30 26 30 11z"/>
<path d="M10935 5353 c-96 -11 -180 -47 -218 -92 -78 -93 -96 -212 -67 -435
42 -319 44 -345 31 -449 -22 -175 -109 -439 -225 -675 -54 -111 -68 -173 -64
-278 2 -66 6 -79 19 -78 11 1 15 -5 12 -17 -9 -33 18 -160 39 -181 16 -16 27
-18 73 -13 50 7 54 5 70 -19 10 -14 23 -61 29 -104 6 -42 15 -83 19 -89 12
-19 45 -16 75 6 104 73 295 131 512 156 122 14 225 37 253 57 17 12 59 50 94
85 36 35 88 75 115 89 47 24 58 25 187 23 189 -4 227 11 363 144 53 52 70 76
82 118 18 61 21 236 6 369 -5 47 -14 156 -20 244 -8 126 -15 170 -34 216 -40
97 -110 194 -232 320 -150 155 -197 172 -273 101 -31 -29 -32 -32 -25 -89 6
-55 5 -60 -15 -67 -36 -11 -86 24 -176 124 -89 99 -123 160 -154 269 -37 135
-75 190 -154 230 -65 32 -213 49 -322 35z"/>
<path d="M1356 4719 c-16 -19 -32 -29 -41 -25 -22 8 -62 -13 -68 -36 -3 -11
-2 -31 3 -44 8 -19 4 -29 -15 -50 -30 -33 -32 -60 -5 -74 11 -6 20 -16 20 -22
0 -6 -10 -2 -23 10 -13 12 -31 22 -41 22 -24 0 -108 -93 -128 -143 -50 -124 5
-275 166 -457 70 -80 110 -107 129 -92 7 5 30 15 52 22 65 20 108 45 173 100
74 61 155 179 171 248 11 44 10 56 -7 98 -11 27 -23 57 -26 67 -6 20 -76 25
-76 5 0 -6 -3 -9 -6 -6 -3 4 -1 15 5 26 10 19 -12 57 -98 162 -22 28 -26 40
-19 59 10 29 0 43 -53 73 -21 12 -45 36 -54 55 -9 18 -20 33 -25 33 -4 0 -20
-14 -34 -31z m-6 -55 c0 -8 -4 -12 -10 -9 -5 3 -10 10 -10 16 0 5 5 9 10 9 6
0 10 -7 10 -16z"/>
<path d="M12468 3470 c-185 -29 -566 -223 -748 -379 -155 -134 -252 -178 -374
-167 -102 9 -294 16 -274 10 15 -4 15 -8 5 -18 -7 -7 -24 -16 -38 -19 -27 -7
-116 -96 -189 -188 -60 -76 -142 -218 -142 -246 0 -33 50 -83 130 -130 105
-61 170 -133 234 -259 66 -127 110 -182 170 -212 24 -11 131 -63 238 -114
l195 -93 142 -3 c291 -6 513 60 583 173 16 27 20 50 20 131 0 55 5 117 11 138
13 49 67 105 188 198 143 110 171 187 137 369 -22 119 -20 198 10 309 15 59
27 138 31 207 6 111 6 113 -25 175 -53 107 -145 143 -304 118z"/>
<path d="M4095 2736 c10 -14 19 -26 22 -26 7 0 -17 39 -28 46 -6 3 -3 -5 6
-20z"/>
</g>
</svg>
