<?xml version="1.0"?>
<svg width="32" height="32" xmlns="http://www.w3.org/2000/svg" xmlns:svg="http://www.w3.org/2000/svg">
 <g class="layer">
  <title>Layer 1</title>
  <path clip-rule="evenodd" d="m33,1l-32,0l0,32l32,0l0,-32zm-15.91,24c0.1,-3.54 0.2,-5.16 1.45,-6.46c1.3,-1.25 2.92,-1.34 6.46,-1.45c0,3.19 -0.01,5.58 -1.15,6.76c-1.18,1.14 -3.46,1.15 -6.76,1.15zm-6.94,-1.15c-1.14,-1.18 -1.15,-3.57 -1.15,-6.76c3.54,0.1 5.16,0.2 6.46,1.45c1.25,1.3 1.34,2.92 1.45,6.46c-3.3,0 -5.58,-0.01 -6.76,-1.15zm0,-13.7c1.18,-1.14 3.47,-1.15 6.76,-1.15c-0.1,3.54 -0.2,5.16 -1.45,6.46c-1.3,1.25 -2.92,1.34 -6.46,1.45c0,-3.19 0.01,-5.58 1.15,-6.76zm6.94,-1.15c0.1,3.54 0.2,5.16 1.45,6.46c1.3,1.25 2.92,1.34 6.46,1.45c0,-3.19 -0.01,-5.58 -1.15,-6.76c-1.18,-1.14 -3.46,-1.15 -6.76,-1.15z" fill="#8c9775" fill-rule="evenodd" id="svg_1"/>
 </g>
</svg>