<?xml version="1.0"?>
<svg width="32" height="32" xmlns="http://www.w3.org/2000/svg" xmlns:svg="http://www.w3.org/2000/svg" xmlns:xlink="http://www.w3.org/1999/xlink">
 <g class="layer">
  <title>Layer 1</title>
  <use fill="#FAF8EC" id="svg_3" transform="matrix(1.39556 0 0 1.39556 0 0)" x="-3.65" xlink:href="#svg_2" y="-4.79"/>
 </g>
 <defs>
  <symbol id="svg_2" viewBox="0 0 24 24" xmlns="http://www.w3.org/2000/svg">
   <path d="m21,2l-18,0a1,1 0 0 0 -1,1l0,18a1,1 0 0 0 1,1l18,0a1,1 0 0 0 1,-1l0,-18a1,1 0 0 0 -1,-1zm-4.72,9.86c-0.35,2.16 -0.72,4.53 -0.72,4.53s-0.06,0.67 -0.55,0.78a2.37,2.37 0 0 1 -1.45,-0.52c-0.11,-0.08 -2.17,-1.38 -2.92,-2.02a0.55,0.55 0 0 1 0.03,-0.92c1.04,-0.96 2.28,-2.14 3.04,-2.89c0.34,-0.35 0.69,-1.16 -0.76,-0.18c-2.05,1.42 -4.07,2.75 -4.07,2.75a1.7,1.7 0 0 1 -1.33,0.03c-0.87,-0.26 -1.88,-0.61 -1.88,-0.61s-0.69,-0.43 0.49,-0.9c0,0 5,-2.05 6.74,-2.77c0.66,-0.29 2.92,-1.22 2.92,-1.22s1.04,-0.4 0.95,0.58c-0.03,0.41 -0.26,1.82 -0.49,3.36z"/>
  </symbol>
 </defs>
</svg>